<svg id="レイヤー_1" data-name="レイヤー 1" xmlns="http://www.w3.org/2000/svg" viewBox="0 0 438.66 229.18"><defs><style>.cls-1{fill:#e96081;}.cls-2{fill:#404040;}.cls-3{fill:#90529c;}.cls-4{fill:#569435;}</style></defs><path class="cls-1" d="M123.57,166.63a5.86,5.86,0,0,0,4.05-1.65,6.08,6.08,0,0,0-4.47-10.43c-2,.07-4.32.25-7.1.52.17-2.88.37-5.72.6-8.54a6,6,0,0,0-1.56-4.75,6.22,6.22,0,0,0-4.44-2.19,6.11,6.11,0,0,0-4.72,1.7,6.27,6.27,0,0,0-2.06,4.59l-.17,10.92a121.18,121.18,0,0,0-18,4.6,5.13,5.13,0,0,0-3.77,5,5.2,5.2,0,0,0,1.45,4,5.6,5.6,0,0,0,3.85,1.83,5.24,5.24,0,0,0,1.9-.27,124.46,124.46,0,0,1,14.24-3.4q-.26,12.33-.59,19.75a43.22,43.22,0,0,0-7.29-1q-7.89-.47-13,3a13.78,13.78,0,0,0-1.62,21.15q4.56,4.08,12.92,4.57,13.8.81,18.35-9.19a61,61,0,0,1,4.79,5,6.28,6.28,0,0,0,4.56,2.48,6.41,6.41,0,0,0,6.76-6,6.26,6.26,0,0,0-1.61-4.71,56.88,56.88,0,0,0-12.29-10.52L115.45,167C118.22,166.79,120.93,166.66,123.57,166.63ZM93.9,205.12c-4.2-.25-6.21-1.75-6.05-4.5.15-2.57,2.42-3.72,6.8-3.47a19.69,19.69,0,0,1,7.5,2.23Q101.22,205.55,93.9,205.12Z"/><path class="cls-1" d="M146.29,145l5.6.43a11.38,11.38,0,0,0-4.65-5.8c-3.92-2.69-9.91-.77-9.91-.77s.38,6.27,4.31,9a11.35,11.35,0,0,0,7.08,2.24Z"/><path class="cls-1" d="M127,138.65l-6.06-3.89c-.58,2.54,0,6,1.72,9.38,2.8,5.43,10.74,6.91,10.74,6.91s3.39-7.33.59-12.76c-1.74-3.37-4.24-5.83-6.65-6.84Z"/><path class="cls-1" d="M53.84,176l-.09.95.89-.51Z"/><path class="cls-1" d="M73.48,183a4.66,4.66,0,0,0-7.74,1.05l-1,1.83c0-.87.1-1.77.16-2.66a15,15,0,0,1-6.46,1.68,25.48,25.48,0,0,1-5.28-.48,130.84,130.84,0,0,0,.25,16.24,5.19,5.19,0,0,1,.74-.38l.16,3.6L57.48,202a7.07,7.07,0,0,1-.9,4.68,5.81,5.81,0,0,1-2.17,2.15,6.39,6.39,0,0,0,1.91,3.27,6.78,6.78,0,0,0,8.75.33,6.4,6.4,0,0,0,2.45-4.1,77.57,77.57,0,0,1,6.65-20.15,4.39,4.39,0,0,0,.48-1.76A4.6,4.6,0,0,0,73.48,183Z"/><path class="cls-1" d="M66.46,170.11a190,190,0,0,1,5.64-23.74,7.14,7.14,0,0,0,.28-1.58,6.41,6.41,0,0,0-1.57-4.67,6.13,6.13,0,0,0-4.53-2.19A6.52,6.52,0,0,0,59.57,143q-3.12,14.19-4.73,25.18a27.58,27.58,0,0,1,3.82-.32A15.48,15.48,0,0,1,66.46,170.11Z"/><path class="cls-1" d="M53.75,176.94l-7.69,4.41a16.49,16.49,0,0,0,7.14,3.08q.06-1.35.15-2.7C53.44,180.21,53.58,178.61,53.75,176.94Z"/><path class="cls-1" d="M46.16,171.71,53.84,176c.26-2.45.6-5.05,1-7.81A18.37,18.37,0,0,0,46.16,171.71Z"/><path class="cls-1" d="M73.68,176.21a27.86,27.86,0,0,0-7.22-6.1,126.25,126.25,0,0,0-1.52,13.12A29,29,0,0,0,73.68,176.21Z"/><path class="cls-1" d="M30,155.08s-3.08-11.48-11.59-15c-5.27-2.2-10.58-2.66-14.35-1.56L10.6,147-.24,148.22c1.77,3.42,5.76,6.84,11,9C19.3,160.81,30,155.08,30,155.08Z"/><path class="cls-1" d="M24.63,173.26s6.5,3.24,11.51,1a13,13,0,0,0,6.42-5.58l-6.49-.56,3.74-5.17a13.5,13.5,0,0,0-8.54,1.17C26.26,166.36,24.63,173.26,24.63,173.26Z"/><path class="cls-1" d="M53.45,200.67a8.2,8.2,0,0,0-2.7,3c-1.45,2.71.28,6.38.28,6.38a11.39,11.39,0,0,0,3.38-1.29,6,6,0,0,1-.16-.71C53.91,205.62,53.65,203.16,53.45,200.67Z"/><path class="cls-1" d="M17.43,175.24A12.41,12.41,0,0,0,18.68,167l-5.36,3.61-.54-6.3A12.83,12.83,0,0,0,7,170.49c-2.36,4.85,1,11.16,1,11.16S15.08,180.1,17.43,175.24Z"/><path class="cls-1" d="M22.35,187.48a13.58,13.58,0,0,0-8.56-1.07l3.81,5.13-6.48.64a13,13,0,0,0,6.5,5.5c5,2.2,11.49-1.12,11.49-1.12S27.39,189.68,22.35,187.48Z"/><path class="cls-1" d="M31,178l.34,3.89-3.64-1.66a7.69,7.69,0,0,0,1.64,4.91c1.95,2.72,6.46,2.95,6.46,2.95s1.33-4.18-.62-6.89A8,8,0,0,0,31,178Z"/><path class="cls-1" d="M46.54,190.54a7.71,7.71,0,0,0-4.89.42c-2.92,1.13-4.07,5-4.07,5s3.59,2,6.52.9a7.51,7.51,0,0,0,3.83-3l-3.68-.5Z"/><path class="cls-2" d="M186.13,150.75a5.39,5.39,0,0,1-.86,3.66,5.33,5.33,0,0,1-3,2.3q-7.89,2.41-13.91,4.69a309.83,309.83,0,0,1-13.44,36.22,5.6,5.6,0,0,1-4.79,3.47,5.84,5.84,0,0,1-4.38-1.21,5.71,5.71,0,0,1-2.29-4,6,6,0,0,1,.65-3.5,188.32,188.32,0,0,0,11-25.39q-5.35,2.46-8.66,4.22a5.9,5.9,0,0,1-2,.6,5.5,5.5,0,0,1-4-1,5.61,5.61,0,0,1,.94-9.47q10.2-4.86,17.83-8,1.57-6.21,2.54-12.19a5.38,5.38,0,0,1,5.07-4.86,5.74,5.74,0,0,1,6.47,5,7,7,0,0,1-.1,2.18l-1.26,5.1a82,82,0,0,1,8-2.61,5.38,5.38,0,0,1,4.05,1.12A5.27,5.27,0,0,1,186.13,150.75Z"/><path class="cls-2" d="M216.39,199.75a5.75,5.75,0,0,0-2.9-4.5,64.54,64.54,0,0,0-15.89-6.95q-1.86-7.87-2.19-10.44a23.63,23.63,0,0,1-.09-3,23.2,23.2,0,0,0-.1-3,5.49,5.49,0,0,0-2.12-3.7,5.36,5.36,0,0,0-4.15-1.19,5.24,5.24,0,0,0-5,5q-.59,4.75,1.4,14.23a37.24,37.24,0,0,0-5.82.27q-7.89,1-12.49,5.23a12.85,12.85,0,0,0-4.23,11.68,12.44,12.44,0,0,0,6.81,10q5.58,2.91,13.56,1.93,14.53-1.8,15.82-14a68.39,68.39,0,0,1,8.09,4.31,5.74,5.74,0,0,0,4,.86,5.94,5.94,0,0,0,4.12-2.31A5.84,5.84,0,0,0,216.39,199.75Zm-30,2.71c-.91,1.38-2.6,2.22-5.09,2.52q-6.83.84-7.31-3.14-.57-4.53,6.71-5.42a19.33,19.33,0,0,1,6.64.62C187.52,199.47,187.21,201.28,186.39,202.46Z"/><path class="cls-2" d="M212.53,162.69a5.8,5.8,0,0,1-5.05,6.48A5.83,5.83,0,0,1,203,168a72.9,72.9,0,0,0-8.07-5.57,5.41,5.41,0,0,1-2.77-4.25,5.64,5.64,0,0,1,5-6.38,5.87,5.87,0,0,1,3.31.59,59.18,59.18,0,0,1,10,6.33A5.64,5.64,0,0,1,212.53,162.69Z"/><path class="cls-3" d="M42.77,121.82c-12.14-.85-27.79-8.9-40-16.43a33.52,33.52,0,0,0,3.34,10.47q7,12.33,25.39,11.9,18.92-.44,41.79-10.24a11.61,11.61,0,0,0,1.17-.59C62.92,120.29,52,122.48,42.77,121.82Z"/><path class="cls-3" d="M19.5,23.16a9.47,9.47,0,0,0-3-7.12,9.55,9.55,0,0,0-7.18-2.85,9.43,9.43,0,0,0-6.84,3,9.41,9.41,0,0,0-2.73,7L.7,67.33A191.32,191.32,0,0,0,19.61,78.07Q19,44,19.5,23.16Z"/><path class="cls-2" d="M78.47,111.63a10.45,10.45,0,0,0,.25-2.56,10.18,10.18,0,0,0-.18-1.59c-13.09,4.07-25.59,6.93-36,6.19-12.45-.88-28.59-9.32-40.95-17,.11,1.26.23,2.47.37,3.63,12.22,7.76,28.83,16.79,41,17.65C53.05,118.65,65.44,115.73,78.47,111.63Z"/><path class="cls-2" d="M19.7,82.44A179.62,179.62,0,0,1,.8,72l.07,3.43a193.16,193.16,0,0,0,18.9,10.74C19.75,84.94,19.72,83.68,19.7,82.44Z"/><path class="cls-2" d="M20.46,98.92A178.92,178.92,0,0,1,1.16,88.34c0,1.19.09,2.35.15,3.47a184.64,184.64,0,0,0,20.38,11.43A19.29,19.29,0,0,1,20.46,98.92Z"/><path class="cls-2" d="M19.93,93.25c0-.9,0-1.78-.06-2.67A180.63,180.63,0,0,1,1,80.18L1,83.61A191.93,191.93,0,0,0,20,94.37C20,94,19.94,93.64,19.93,93.25Z"/><path class="cls-2" d="M73.08,100.91a138.07,138.07,0,0,1-17,3.86,83.06,83.06,0,0,1-19,4.1,37.63,37.63,0,0,0,5.75.92c9.66.68,21.53-2,34.06-5.88a10.71,10.71,0,0,0-1-1.09A8.84,8.84,0,0,0,73.08,100.91Z"/><path class="cls-2" d="M120.62,80.82c12-3.8,23.64-6.63,33.58-6.65A36.31,36.31,0,0,1,163.35,71a36,36,0,0,0-6.11-1c-9.84-.69-22,2.11-34.78,6.1l.39,2.74Z"/><path class="cls-2" d="M146,62.32c-2.78,1.62-5.69,3.47-8.75,5.58-.19-1.39-.38-2.67-.55-3.89-4.94,1.12-10.1,2.58-15.37,4.24l.57,4c13-4,25.33-6.8,35.61-6.08,11.35.8,25.77,7.89,37.59,15-.06-1.2-.16-2.41-.32-3.63-11.8-7.22-26.59-14.81-37.73-15.59A56.74,56.74,0,0,0,146,62.32Z"/><path class="cls-2" d="M193.7,72.22a24.63,24.63,0,0,0-8.36-13q-8.11-6.31-19.85-4.63a42.9,42.9,0,0,0-10.83,3.3c.9,0,1.79,0,2.66.1C168.29,58.75,182.12,65.39,193.7,72.22Z"/><path class="cls-2" d="M165.85,101.15a8.21,8.21,0,0,1-4.61-1.2,8.9,8.9,0,0,0-5.38-1.1,8.11,8.11,0,0,0-5.47,3.17,7.76,7.76,0,0,0-1.57,6.08,8.71,8.71,0,0,0,3.79,5.77q6.06,4.55,15.4,3.2a28.68,28.68,0,0,0,19.5-11.69,128.75,128.75,0,0,0-15.3-7.27A11.93,11.93,0,0,1,165.85,101.15Z"/><path class="cls-2" d="M176.07,75.49A15,15,0,0,1,177.6,80a159.93,159.93,0,0,1,17.06,8.89c.18-1.06.3-2.13.38-3.21A166.26,166.26,0,0,0,176.07,75.49Z"/><path class="cls-2" d="M135.21,52.73a65.61,65.61,0,0,0,13.25-8.21,7.61,7.61,0,0,0,3.06-7.39,8.05,8.05,0,0,0-9.09-6.82,8,8,0,0,0-3.52,1.54,48.27,48.27,0,0,1-5.66,3.64Q132.58,29,132.11,23a8.45,8.45,0,0,0-3.2-6.11A8.12,8.12,0,0,0,122.33,15a8.37,8.37,0,0,0-5.81,3.48A8.05,8.05,0,0,0,115,25q1,5.93,2.44,16.14l-1.89.27a31.68,31.68,0,0,1-11.8-.5,8.55,8.55,0,0,0-3.1-.07,8.5,8.5,0,0,0-7.14,9.53,7.84,7.84,0,0,0,6.7,7.15,49.88,49.88,0,0,0,17.08.52l2.52-.36,1,6.7c5.26-1.65,10.42-3.1,15.39-4.22C135.72,56.91,135.4,54.43,135.21,52.73Z"/><path class="cls-2" d="M107.56,93.4c11-3.83,21.93-7.4,32-9.4,0-.2-.05-.38-.08-.58,2.39-1.78,4.67-3.38,6.86-4.79-9.87,1.29-21,4.63-32.46,8.5Q110.91,90,107.56,93.4Z"/><path class="cls-2" d="M175.16,94.6l-.27.37a137.15,137.15,0,0,1,14.83,7.15c.53-.89,1-1.79,1.48-2.69a155.11,155.11,0,0,0-14.6-7.57A17.89,17.89,0,0,1,175.16,94.6Z"/><path class="cls-2" d="M127.31,109.9l-10.68-4.39c1-1.31,2.17-2.64,3.36-4-6.24,2-12.61,4.27-18.91,6.51l-5.33,1.88s0,.08,0,.13a8.26,8.26,0,0,0,9.38,7,7.74,7.74,0,0,0,3.77-1.57,194.52,194.52,0,0,1,17.26,9.89,11.07,11.07,0,0,0,8.13,1.93,11.31,11.31,0,0,0,7.72-4.59,10.88,10.88,0,0,0,2.1-8.67q-1.38-8.52-2.84-18.25a156.15,156.15,0,0,0-15.45,3.9Z"/><path class="cls-2" d="M177.71,88.08a156.36,156.36,0,0,1,15.09,7.73q.54-1.44,1-2.91A168.59,168.59,0,0,0,178,84.44,20.47,20.47,0,0,1,177.71,88.08Z"/><path class="cls-2" d="M101.44,99.69c-1.12,1.16-2.25,2.35-3.42,3.59a9.26,9.26,0,0,0-1.59,2.27l3.35-1.18c13.93-4.94,28.17-10,40.94-12.42-.2-1.35-.4-2.71-.6-4.09C128.11,90.27,114.65,95,101.44,99.69Z"/><path class="cls-2" d="M169.57,39A41.16,41.16,0,0,1,184.09,46a8.29,8.29,0,0,0,6.4,1.53,7.9,7.9,0,0,0,5.64-3.39,8.41,8.41,0,0,0,1.5-6.14,8.13,8.13,0,0,0-2.94-5.24,45.45,45.45,0,0,0-22-9.73A8,8,0,0,0,165,26.12a7.84,7.84,0,0,0-1.51,6.08A7.7,7.7,0,0,0,169.57,39Z"/><path class="cls-2" d="M367.81,147.9c7.49,2.46,17.18,5.06,23.89-.64a15.11,15.11,0,0,0-2.35-8.75l-27.94-11.73c-6.81,3.56-48.39,18.09-52.48,12.37l-.64,3.42c-20.91,1.6-44.41,19.76-64,7.68h-3l3,8.74,11.52,8.75c2,5.55,7.33,6.95,13.44,7.68l4.05-3-8.74,18.13c-5.6,4.64-9.43,5.91-15.58,1.29l-3.62,2.77,1.28,8.32a94.49,94.49,0,0,0,16.21,17.49l7.68-1.71c1.46-1.44,6.89-8.62,9.17-8.74,4.13-6.44,9.14-13.59,8.32-21.12l2.35-13.44-1.28-3.63-5.76-4.69c7.45-2.45,20.83-9.53,28.59-8.11l1.7,11.74c-1.34,10.46,1.48,21.52-5.33,30.5-5.22-1.76-11.51-3.89-17.49-3.62v3.62l3,7.47a16,16,0,0,0,8.11,5.33l11.73,10.45a10.76,10.76,0,0,0,9.17,4.7l3.63-1.07,7-6.4c9-14,1.42-31.31,2.77-46.93-1.8-7.62-.39-16.15,1.71-23.47a8.6,8.6,0,0,0,7.68-2.34Q356.71,148.76,367.81,147.9Z"/><path class="cls-2" d="M407.22,98.32c-.36,7.45-3.15,14-7.67,17.76L390.82,107l-3.32,11.72c15.32,8.88,34.65,14,49.64,8.7a7.87,7.87,0,0,0-1.28-10.66A332.36,332.36,0,0,1,407.22,98.32Z"/><path class="cls-2" d="M343.27,157.29l8.11,14.5c11.83,13.08,20.94,28.34,34.34,39.9l3-.65,4.06,1.71,2.34-.43c7.78,1.81,16.64,1.52,20.91-5.33C411.78,178.72,366.26,168.49,343.27,157.29Z"/><path class="cls-2" d="M369,84.07a37.74,37.74,0,0,1-6.21,8c3.7,4.83,7,9.59,9.09,14.85l.49.47a35.88,35.88,0,0,1-3.84-9.53C367.51,93.82,367.9,89,369,84.07Z"/><path class="cls-2" d="M363.75,110.36c-10.95-4.64-21.64-6.92-32.64-11.1l-7,1.07c-10.12,10.44-30,19.53-42,7.68,4.55-11.61,11.14-23.48,19.2-32.85,4.24-7,9.24-21.49,15.78-25.6,2.41-3.63,4.08-8.39,7-11.73,7.41,6.29,11.28,14.67,16.74,22.62a33.38,33.38,0,0,1,11.59-3.12c-4.79-1.1-9.27-2.82-12.44-5.49-9-7.53-13.06-18.23-10.91-26.52l12.39,2.07-.9-2.52a50.18,50.18,0,0,0-4.31-4.11c-6.41-5.32-14.93-7.32-22.61-10.45a65.62,65.62,0,0,0-15.14,7.46C286.69,16.33,274,2.27,262.21,9l4.27,6.4c-4.34,19.68-21.54,39.83-38.62,49.91a17.6,17.6,0,0,1-11.09-4.26l-1.7,5.33v4a93.89,93.89,0,0,0,14.08,15.79c-5,8.89-8.45,18.06-14.51,26.45q-3-.63-4.27,1.71l.64,3c-2.41,12.66,5.17,25.26,15.79,31.57,9.25-.19,18.3-2.17,23.89-9.39l2.35-.43c8.8-9.09,19.33-16.79,26.66-27.09l1.28,4.7c3.16,1.9,8.7,7.83,11.1,10.66a23.36,23.36,0,0,1,8.74,4c18.91-7.43,40.21-10,60.59-12.37l4-3.41ZM283.33,37.19l4.69-.64,1.07-3a39.59,39.59,0,0,1,14.51-4.69,86.14,86.14,0,0,1-12.16,21.75l-12.8-3ZM234.91,119.1c-4.66-7.68-5.68-18.51-.65-26.24,6.41-2.24,11.1-7.84,17.5-11.73l10,12.16C253.93,102.61,244.27,111.4,234.91,119.1Zm38-41.6a45.91,45.91,0,0,1-12.8-5.12l5.76-7,3-7L281,64.06A31.9,31.9,0,0,1,272.88,77.5Z"/><path class="cls-4" d="M342.63,63c-.63-.85-1.23-1.7-1.82-2.55-.52.27-1,.55-1.51.86-9.95,6.42-15.5,16.54-14.52,25l12.58-.59-5.92,11.33c7.09,4.54,18.44,3.78,28.39-2.63a20.52,20.52,0,0,0,2.94-2.34c-1-1.3-2-2.6-3.07-3.92C355,82.22,347.2,69.08,342.63,63Z"/><path class="cls-4" d="M387.33,119.3l.17-.58a77.07,77.07,0,0,1-15.15-11.31C376.1,113.84,381.58,118.21,387.33,119.3Z"/><path class="cls-4" d="M407.22,98.32a36.39,36.39,0,0,0-1-10.39c-1-4.07-3.59-8.14-6.79-11.89,4.24,2.49,8.68,4.31,12.81,4.55,11.7.69,22-4.27,26.15-11.77l-10.43-7,11.32-5.72C436.2,48.16,426.66,42,415,41.33c-4.14-.25-8.79,1-13.34,3,3.7-3.34,6.83-7.08,8.39-11,4.4-11.07,3.05-22.49-2.67-28.7l-9.92,8L395.68,0C387.26.58,378.43,8,374,19c-1.56,3.92-1.85,8.78-1.46,13.76-1.95-4.56-4.45-8.69-7.63-11.36-9-7.53-20.13-9.62-27.79-6l3.39,9.41c10.66,11.36,23.49,32.44,32,42.18A204.91,204.91,0,0,0,407.22,98.32Z"/></svg>