<?xml version="1.0" encoding="UTF-8"?><svg id="_レイヤー_1" xmlns="http://www.w3.org/2000/svg" viewBox="0 0 310.95 310.94"><defs><style>.cls-1{fill:none;}.cls-2{fill:#fff;}.cls-3{fill:#8fc31f;}.cls-4{fill:#333f1e;}.cls-5{fill:#bfbfbf;}</style></defs><rect class="cls-4" y="0" width="310.95" height="310.95"/><g><path class="cls-1" d="M145.45,189.46c4.23,8.46,7.74,15.47,10.02,20.04l44.01-88.02-10.02-20.04-44.01,88.02Z"/><polygon class="cls-1" points="216.25 155.02 216.25 155.02 206.46 135.43 213.43 121.48 223.23 141.07 223.23 141.06 223.23 141.06 246.9 93.73 227.31 93.73 165.57 217.21 185.16 217.21 216.25 155.02"/><path class="cls-3" d="M145.38,217.21h20.19l61.74-123.48h19.59l6.24-12.48h-33.54l-13.14,26.28h0s-6.97,13.95-6.97,13.95h0s-44.01,88.02-44.01,88.02h0s0,0,0,0c-2.28-4.57-5.79-11.57-10.02-20.04h0s-4.65-9.3-4.65-9.3l-2.33-4.65h0c-16.6-33.19-38.82-77.65-47.13-94.26H33.74v12.48h49.9c10.26,20.51,52.36,104.72,61.74,123.48Z"/><path class="cls-3" d="M14.18,14.17V93.73h12.48V26.65H284.29v54.6h12.48V14.17H14.18Z"/><polygon class="cls-2" points="206.46 135.43 216.25 155.02 223.23 141.07 213.43 121.48 206.46 135.43"/><path class="cls-2" d="M138.48,175.51c2.47,4.94,4.82,9.64,6.97,13.95l44.01-88.02,10.02,20.04,6.97-13.95-16.99-33.99-50.98,101.97Z"/><rect class="cls-2" x="195.17" y="114.51" width="15.6" height="0" transform="translate(9.78 244.84) rotate(-63.44)"/><path class="cls-2" d="M138.48,175.51l2.33,4.65,4.65,9.3h0c-2.16-4.31-4.5-9.01-6.97-13.95h0Z"/><polygon class="cls-2" points="111.39 217.21 117.63 217.21 125.34 217.21 131.58 217.21 135.66 209.05 138.48 203.41 131.5 189.46 127.41 197.65 121.48 209.5 121.48 209.5 91.35 149.23 33.74 149.23 33.74 161.71 83.64 161.71 111.39 217.21"/><path class="cls-2" d="M26.65,93.73H14.18v123.48h12.48V93.73Z"/><polygon class="cls-5" points="260.85 93.73 246.9 93.73 223.23 141.06 223.23 141.06 223.23 141.07 216.25 155.02 216.25 155.02 185.16 217.21 165.57 217.21 159.33 217.21 151.62 217.21 145.38 217.21 145.38 217.21 131.58 217.21 131.58 217.21 125.34 217.21 117.63 217.21 111.39 217.21 111.39 217.21 33.74 217.21 33.74 229.69 111.39 229.69 117.63 229.69 125.34 229.69 131.58 229.69 145.38 229.69 151.62 229.69 159.33 229.69 165.57 229.69 192.87 229.69 226.86 161.71 277.21 161.71 277.21 149.23 233.1 149.23 260.85 93.73"/><polygon class="cls-5" points="284.29 81.25 284.29 93.73 284.29 149.23 284.29 161.71 284.29 284.29 284.29 284.29 26.65 284.29 26.65 217.21 14.18 217.21 14.18 229.69 14.18 296.77 296.77 296.77 296.77 161.71 296.77 149.23 296.77 93.73 296.77 81.25 284.29 81.25"/><polygon class="cls-5" points="246.9 93.73 260.85 93.73 277.21 93.73 277.21 81.25 253.14 81.25 246.9 93.73"/></g></svg>